<svg width="527" height="361" viewBox="0 0 527 361" fill="none" xmlns="http://www.w3.org/2000/svg">
<g filter="url(#filter0_di_16_141)">
<path d="M75.2939 5.39905C76.7639 5.3991 78.1704 5.99886 79.1885 7.0592L83.0762 11.108C84.1091 12.1839 85.3667 13.2399 86.8581 13.2399H148.429C153.647 13.24 157.877 17.4702 157.877 22.6881V95.5748C157.877 99.3021 154.855 102.324 151.128 102.324H37.749C34.0218 102.324 31 99.3021 31 95.5748V13.295C31 13.2646 31.0247 13.2399 31.0552 13.2399C31.0856 13.2399 31.1104 13.2152 31.1104 13.1847V10.7985C31.1104 7.81669 33.528 5.39908 36.5098 5.39905H75.2939Z" fill="url(#paint0_linear_16_141)"/>
</g>
<g opacity="0.5" filter="url(#filter1_di_16_141)">
<path d="M31.1111 26.9951C31.1111 23.2678 34.1326 20.2463 37.8599 20.2463H151.239C154.967 20.2463 157.988 23.2678 157.988 26.9951V95.8325C157.988 99.5598 154.967 102.581 151.239 102.581H37.8599C34.1326 102.581 31.1111 99.5598 31.1111 95.8325V26.9951Z" fill="url(#paint1_linear_16_141)"/>
</g>
<g filter="url(#filter2_di_16_141)">
<path d="M426.294 5.39905C427.764 5.3991 429.17 5.99886 430.188 7.0592L434.076 11.108C435.109 12.1839 436.367 13.2399 437.858 13.2399H499.429C504.647 13.24 508.877 17.4702 508.877 22.6881V95.5748C508.877 99.3021 505.855 102.324 502.128 102.324H388.749C385.022 102.324 382 99.3021 382 95.5748V13.295C382 13.2646 382.025 13.2399 382.055 13.2399C382.086 13.2399 382.11 13.2152 382.11 13.1847V10.7985C382.11 7.81669 384.528 5.39908 387.51 5.39905H426.294Z" fill="url(#paint2_linear_16_141)"/>
</g>
<g opacity="0.5" filter="url(#filter3_di_16_141)">
<path d="M382.111 26.9951C382.111 23.2678 385.133 20.2463 388.86 20.2463H502.239C505.967 20.2463 508.988 23.2678 508.988 26.9951V95.8325C508.988 99.5598 505.967 102.581 502.239 102.581H388.86C385.133 102.581 382.111 99.5598 382.111 95.8325V26.9951Z" fill="url(#paint3_linear_16_141)"/>
</g>
<g filter="url(#filter4_di_16_141)">
<path d="M426.294 206.399C427.764 206.399 429.17 206.999 430.188 208.059L434.076 212.108C435.109 213.184 436.367 214.24 437.858 214.24H499.429C504.647 214.24 508.877 218.47 508.877 223.688V296.575C508.877 300.302 505.855 303.324 502.128 303.324H388.749C385.022 303.324 382 300.302 382 296.575V214.295C382 214.265 382.025 214.24 382.055 214.24C382.086 214.24 382.11 214.215 382.11 214.185V211.798C382.11 208.817 384.528 206.399 387.51 206.399H426.294Z" fill="url(#paint4_linear_16_141)"/>
</g>
<g opacity="0.5" filter="url(#filter5_di_16_141)">
<path d="M382.111 227.995C382.111 224.268 385.133 221.246 388.86 221.246H502.239C505.967 221.246 508.988 224.268 508.988 227.995V296.833C508.988 300.56 505.967 303.581 502.239 303.581H388.86C385.133 303.581 382.111 300.56 382.111 296.833V227.995Z" fill="url(#paint5_linear_16_141)"/>
</g>
<g filter="url(#filter6_di_16_141)">
<path d="M76.2939 206.399C77.7639 206.399 79.1704 206.999 80.1885 208.059L84.0762 212.108C85.1091 213.184 86.3667 214.24 87.8581 214.24H149.429C154.647 214.24 158.877 218.47 158.877 223.688V296.575C158.877 300.302 155.855 303.324 152.128 303.324H38.749C35.0218 303.324 32 300.302 32 296.575V214.295C32 214.265 32.0247 214.24 32.0552 214.24C32.0856 214.24 32.1104 214.215 32.1104 214.185V211.798C32.1104 208.817 34.528 206.399 37.5098 206.399H76.2939Z" fill="url(#paint6_linear_16_141)"/>
</g>
<g opacity="0.5" filter="url(#filter7_di_16_141)">
<path d="M32.1111 227.995C32.1111 224.268 35.1326 221.246 38.8599 221.246H152.239C155.967 221.246 158.988 224.268 158.988 227.995V296.833C158.988 300.56 155.967 303.581 152.239 303.581H38.8599C35.1326 303.581 32.1111 300.56 32.1111 296.833V227.995Z" fill="url(#paint7_linear_16_141)"/>
</g>
<path d="M0.28125 150.399L9.79102 124.208H14.502L23.9414 150.399H19.7051L14.6602 135.633C14.25 134.38 13.8047 133.008 13.3242 131.52C12.8438 130.032 12.2695 128.186 11.6016 125.983H12.709C12.041 128.186 11.4668 130.032 10.9863 131.52C10.5059 133.008 10.0547 134.38 9.63281 135.633L4.42969 150.399H0.28125ZM5.55469 143.596V140.274H18.6855V143.596H5.55469ZM26.3496 157.747V131.837H29.9883V134.508H30.041C30.4277 133.829 30.9141 133.266 31.5 132.821C32.0977 132.376 32.7598 132.042 33.4863 131.819C34.2246 131.585 34.9922 131.467 35.7891 131.467C37.3945 131.467 38.7949 131.878 39.9902 132.698C41.1973 133.506 42.1348 134.637 42.8027 136.09C43.4824 137.532 43.8223 139.208 43.8223 141.118C43.8223 143.028 43.4883 144.71 42.8203 146.163C42.1523 147.604 41.2148 148.735 40.0078 149.555C38.8008 150.364 37.3887 150.768 35.7715 150.768C34.9746 150.768 34.2188 150.651 33.5039 150.417C32.8008 150.182 32.1621 149.831 31.5879 149.362C31.0137 148.893 30.5215 148.307 30.1113 147.604H30.0586V157.747H26.3496ZM35.0156 147.569C36.0234 147.569 36.9023 147.323 37.6523 146.831C38.4023 146.327 38.9883 145.6 39.4102 144.651C39.8438 143.69 40.0605 142.512 40.0605 141.118C40.0605 139.712 39.8438 138.528 39.4102 137.567C38.9883 136.606 38.4023 135.88 37.6523 135.387C36.9023 134.895 36.0234 134.649 35.0156 134.649C33.9609 134.649 33.041 134.919 32.2559 135.458C31.4824 135.985 30.8789 136.735 30.4453 137.708C30.0234 138.669 29.8125 139.805 29.8125 141.118C29.8125 142.407 30.0234 143.538 30.4453 144.51C30.8789 145.483 31.4824 146.239 32.2559 146.778C33.041 147.305 33.9609 147.569 35.0156 147.569ZM47.0918 157.747V131.837H50.7305V134.508H50.7832C51.1699 133.829 51.6562 133.266 52.2422 132.821C52.8398 132.376 53.502 132.042 54.2285 131.819C54.9668 131.585 55.7344 131.467 56.5312 131.467C58.1367 131.467 59.5371 131.878 60.7324 132.698C61.9395 133.506 62.877 134.637 63.5449 136.09C64.2246 137.532 64.5645 139.208 64.5645 141.118C64.5645 143.028 64.2305 144.71 63.5625 146.163C62.8945 147.604 61.957 148.735 60.75 149.555C59.543 150.364 58.1309 150.768 56.5137 150.768C55.7168 150.768 54.9609 150.651 54.2461 150.417C53.543 150.182 52.9043 149.831 52.3301 149.362C51.7559 148.893 51.2637 148.307 50.8535 147.604H50.8008V157.747H47.0918ZM55.7578 147.569C56.7656 147.569 57.6445 147.323 58.3945 146.831C59.1445 146.327 59.7305 145.6 60.1523 144.651C60.5859 143.69 60.8027 142.512 60.8027 141.118C60.8027 139.712 60.5859 138.528 60.1523 137.567C59.7305 136.606 59.1445 135.88 58.3945 135.387C57.6445 134.895 56.7656 134.649 55.7578 134.649C54.7031 134.649 53.7832 134.919 52.998 135.458C52.2246 135.985 51.6211 136.735 51.1875 137.708C50.7656 138.669 50.5547 139.805 50.5547 141.118C50.5547 142.407 50.7656 143.538 51.1875 144.51C51.6211 145.483 52.2246 146.239 52.998 146.778C53.7832 147.305 54.7031 147.569 55.7578 147.569ZM71.543 124.208V150.399H67.834V124.208H71.543ZM75.7441 150.399V131.837H79.4531V150.399H75.7441ZM77.5898 128.637C76.9336 128.637 76.377 128.421 75.9199 127.987C75.4746 127.542 75.252 127.003 75.252 126.37C75.252 125.725 75.4746 125.186 75.9199 124.753C76.377 124.307 76.9336 124.085 77.5898 124.085C78.2461 124.085 78.8027 124.307 79.2598 124.753C79.7168 125.186 79.9453 125.725 79.9453 126.37C79.9453 127.003 79.7168 127.542 79.2598 127.987C78.8027 128.421 78.2461 128.637 77.5898 128.637ZM91.5996 150.821C89.8301 150.821 88.2832 150.411 86.959 149.59C85.6348 148.77 84.5977 147.633 83.8477 146.18C83.1094 144.715 82.7402 143.04 82.7402 141.153C82.7402 139.243 83.1094 137.555 83.8477 136.09C84.5977 134.626 85.6348 133.483 86.959 132.663C88.2832 131.831 89.8301 131.415 91.5996 131.415C92.7012 131.415 93.7207 131.585 94.6582 131.924C95.6074 132.253 96.4395 132.721 97.1543 133.331C97.8691 133.928 98.4434 134.643 98.877 135.475C99.3223 136.296 99.6035 137.198 99.7207 138.182H96.0293C95.9355 137.655 95.7715 137.174 95.5371 136.741C95.3027 136.307 94.998 135.932 94.623 135.616C94.248 135.299 93.8086 135.053 93.3047 134.878C92.8125 134.702 92.25 134.614 91.6172 134.614C90.5508 134.614 89.6367 134.883 88.875 135.422C88.1133 135.962 87.5273 136.723 87.1172 137.708C86.707 138.68 86.502 139.829 86.502 141.153C86.502 142.465 86.707 143.608 87.1172 144.581C87.5273 145.542 88.1133 146.292 88.875 146.831C89.6367 147.358 90.5508 147.622 91.6172 147.622C92.25 147.622 92.8125 147.54 93.3047 147.376C93.7969 147.2 94.2188 146.954 94.5703 146.637C94.9219 146.321 95.2148 145.946 95.4492 145.512C95.6836 145.067 95.8594 144.575 95.9766 144.036H99.7207C99.6152 145.008 99.3398 145.905 98.8945 146.725C98.4609 147.546 97.8809 148.266 97.1543 148.887C96.4395 149.497 95.6074 149.971 94.6582 150.311C93.7207 150.651 92.7012 150.821 91.5996 150.821ZM108.756 150.698C107.525 150.698 106.424 150.487 105.451 150.065C104.49 149.643 103.729 149.016 103.166 148.184C102.604 147.352 102.322 146.321 102.322 145.09C102.322 144.036 102.521 143.169 102.92 142.489C103.33 141.809 103.881 141.27 104.572 140.872C105.264 140.473 106.049 140.174 106.928 139.975C107.807 139.764 108.715 139.606 109.652 139.501C110.824 139.348 111.744 139.231 112.412 139.149C113.092 139.055 113.572 138.915 113.854 138.727C114.146 138.528 114.293 138.206 114.293 137.76V137.602C114.293 137.005 114.146 136.477 113.854 136.02C113.561 135.551 113.133 135.182 112.57 134.913C112.008 134.643 111.334 134.508 110.549 134.508C109.764 134.508 109.066 134.637 108.457 134.895C107.859 135.153 107.379 135.51 107.016 135.967C106.664 136.413 106.465 136.922 106.418 137.497H102.779C102.838 136.313 103.195 135.27 103.852 134.368C104.508 133.465 105.41 132.756 106.559 132.241C107.707 131.725 109.055 131.467 110.602 131.467C111.738 131.467 112.764 131.614 113.678 131.907C114.592 132.2 115.365 132.622 115.998 133.172C116.643 133.712 117.129 134.362 117.457 135.124C117.797 135.885 117.967 136.735 117.967 137.672V150.399H114.311V147.762H114.24C113.982 148.266 113.631 148.741 113.186 149.186C112.74 149.631 112.154 149.995 111.428 150.276C110.713 150.557 109.822 150.698 108.756 150.698ZM109.512 147.71C110.602 147.71 111.498 147.516 112.201 147.13C112.916 146.731 113.443 146.21 113.783 145.565C114.135 144.921 114.311 144.217 114.311 143.456V141.276C114.182 141.381 113.971 141.481 113.678 141.575C113.396 141.657 113.051 141.739 112.641 141.821C112.23 141.891 111.785 141.967 111.305 142.049C110.824 142.131 110.344 142.202 109.863 142.26C109.184 142.354 108.551 142.512 107.965 142.735C107.379 142.946 106.904 143.245 106.541 143.631C106.189 144.018 106.014 144.528 106.014 145.161C106.014 145.688 106.154 146.145 106.436 146.532C106.717 146.907 107.121 147.2 107.648 147.411C108.176 147.61 108.797 147.71 109.512 147.71ZM131.098 131.837V134.895H120.34V131.837H131.098ZM123.609 126.774H127.318V145.495C127.318 146.174 127.459 146.655 127.74 146.936C128.033 147.206 128.549 147.34 129.287 147.34C129.568 147.34 129.879 147.34 130.219 147.34C130.559 147.34 130.852 147.34 131.098 147.34V150.399C130.793 150.399 130.424 150.399 129.99 150.399C129.568 150.399 129.158 150.399 128.76 150.399C127.014 150.399 125.719 150.036 124.875 149.309C124.031 148.571 123.609 147.458 123.609 145.969V126.774ZM134.033 150.399V131.837H137.742V150.399H134.033ZM135.879 128.637C135.223 128.637 134.666 128.421 134.209 127.987C133.764 127.542 133.541 127.003 133.541 126.37C133.541 125.725 133.764 125.186 134.209 124.753C134.666 124.307 135.223 124.085 135.879 124.085C136.535 124.085 137.092 124.307 137.549 124.753C138.006 125.186 138.234 125.725 138.234 126.37C138.234 127.003 138.006 127.542 137.549 127.987C137.092 128.421 136.535 128.637 135.879 128.637ZM149.924 150.821C148.154 150.821 146.602 150.411 145.266 149.59C143.93 148.77 142.887 147.633 142.137 146.18C141.398 144.727 141.029 143.051 141.029 141.153C141.029 139.231 141.398 137.544 142.137 136.09C142.887 134.626 143.93 133.483 145.266 132.663C146.602 131.831 148.154 131.415 149.924 131.415C151.693 131.415 153.24 131.831 154.564 132.663C155.9 133.483 156.938 134.626 157.676 136.09C158.426 137.544 158.801 139.231 158.801 141.153C158.801 143.051 158.426 144.727 157.676 146.18C156.938 147.633 155.9 148.77 154.564 149.59C153.24 150.411 151.693 150.821 149.924 150.821ZM149.924 147.622C150.979 147.622 151.887 147.358 152.648 146.831C153.422 146.292 154.014 145.536 154.424 144.563C154.846 143.59 155.057 142.454 155.057 141.153C155.057 139.817 154.846 138.663 154.424 137.69C154.014 136.717 153.422 135.962 152.648 135.422C151.887 134.883 150.979 134.614 149.924 134.614C148.869 134.614 147.955 134.883 147.182 135.422C146.42 135.95 145.828 136.706 145.406 137.69C144.996 138.663 144.791 139.817 144.791 141.153C144.791 142.465 144.996 143.608 145.406 144.581C145.828 145.542 146.42 146.292 147.182 146.831C147.943 147.358 148.857 147.622 149.924 147.622ZM165.797 139.712V150.399H162.088V131.837H165.727V136.442H164.865C165.475 134.778 166.318 133.536 167.396 132.715C168.486 131.883 169.799 131.467 171.334 131.467C172.611 131.467 173.754 131.749 174.762 132.311C175.781 132.862 176.584 133.682 177.17 134.772C177.756 135.862 178.049 137.215 178.049 138.833V150.399H174.34V139.29C174.34 137.801 173.982 136.682 173.268 135.932C172.564 135.171 171.568 134.79 170.279 134.79C169.436 134.79 168.674 134.96 167.994 135.299C167.326 135.639 166.793 136.172 166.395 136.899C165.996 137.626 165.797 138.563 165.797 139.712ZM189.105 150.839C187.688 150.839 186.41 150.61 185.273 150.153C184.137 149.696 183.223 149.016 182.531 148.114C181.84 147.212 181.447 146.092 181.354 144.756H185.01C185.115 145.753 185.508 146.526 186.188 147.077C186.879 147.616 187.828 147.885 189.035 147.885C190.219 147.885 191.15 147.645 191.83 147.165C192.51 146.684 192.85 146.075 192.85 145.337C192.85 144.704 192.604 144.2 192.111 143.825C191.631 143.438 190.986 143.157 190.178 142.981L187.102 142.296C185.355 141.909 184.031 141.27 183.129 140.38C182.227 139.489 181.775 138.358 181.775 136.987C181.775 135.885 182.068 134.919 182.654 134.087C183.252 133.255 184.084 132.604 185.15 132.135C186.217 131.667 187.459 131.432 188.877 131.432C190.271 131.432 191.508 131.678 192.586 132.171C193.676 132.663 194.531 133.36 195.152 134.262C195.785 135.165 196.119 136.243 196.154 137.497H192.604C192.592 136.594 192.252 135.85 191.584 135.264C190.916 134.667 190.031 134.368 188.93 134.368C187.875 134.368 187.037 134.614 186.416 135.106C185.795 135.598 185.484 136.202 185.484 136.917C185.484 137.549 185.719 138.059 186.188 138.446C186.668 138.833 187.324 139.12 188.156 139.307L191.32 140.01C193.137 140.409 194.467 141.024 195.311 141.856C196.166 142.688 196.594 143.778 196.594 145.126C196.594 146.309 196.266 147.329 195.609 148.184C194.965 149.028 194.08 149.684 192.955 150.153C191.83 150.61 190.547 150.839 189.105 150.839Z" fill="white"/>
<path d="M396.461 150.821C394.363 150.821 392.559 150.464 391.047 149.749C389.535 149.034 388.369 148.008 387.549 146.672C386.729 145.337 386.318 143.749 386.318 141.909H390.221C390.232 143.057 390.484 144.047 390.977 144.88C391.469 145.7 392.178 146.327 393.104 146.76C394.041 147.194 395.16 147.411 396.461 147.411C397.656 147.411 398.688 147.241 399.555 146.901C400.434 146.561 401.119 146.081 401.611 145.46C402.104 144.827 402.35 144.083 402.35 143.227C402.35 142.559 402.18 141.979 401.84 141.487C401.512 140.983 400.979 140.544 400.24 140.169C399.514 139.794 398.541 139.465 397.322 139.184L394.457 138.499C391.809 137.878 389.875 136.999 388.656 135.862C387.449 134.725 386.846 133.249 386.846 131.432C386.846 129.897 387.232 128.561 388.006 127.424C388.779 126.276 389.869 125.385 391.275 124.753C392.682 124.108 394.316 123.786 396.18 123.786C398.066 123.786 399.701 124.12 401.084 124.788C402.467 125.456 403.539 126.405 404.301 127.635C405.074 128.866 405.49 130.337 405.549 132.047H401.77C401.676 130.536 401.125 129.352 400.117 128.497C399.109 127.63 397.779 127.196 396.127 127.196C395.084 127.196 394.152 127.372 393.332 127.723C392.523 128.063 391.885 128.538 391.416 129.147C390.959 129.745 390.73 130.442 390.73 131.239C390.73 131.872 390.9 132.422 391.24 132.891C391.58 133.36 392.113 133.77 392.84 134.122C393.578 134.473 394.545 134.796 395.74 135.089L398.57 135.756C399.883 136.073 401.02 136.454 401.98 136.899C402.953 137.344 403.75 137.866 404.371 138.464C405.004 139.049 405.473 139.723 405.777 140.485C406.094 141.235 406.252 142.079 406.252 143.016C406.252 144.587 405.848 145.958 405.039 147.13C404.23 148.301 403.094 149.21 401.629 149.854C400.164 150.499 398.441 150.821 396.461 150.821ZM409.908 157.747V154.618H411.912C412.311 154.618 412.65 154.542 412.932 154.389C413.213 154.249 413.465 154.02 413.688 153.704C413.922 153.387 414.133 152.983 414.32 152.491L415.164 150.276L407.992 131.837H411.965L415.674 142.014C416.014 142.975 416.342 143.936 416.658 144.897C416.986 145.846 417.297 146.801 417.59 147.762H416.588C416.881 146.801 417.186 145.846 417.502 144.897C417.83 143.936 418.164 142.975 418.504 142.014L422.16 131.837H426.08L417.643 153.651C417.291 154.553 416.857 155.303 416.342 155.901C415.826 156.51 415.229 156.967 414.549 157.272C413.869 157.589 413.107 157.747 412.264 157.747C411.877 157.747 411.484 157.747 411.086 157.747C410.688 157.747 410.295 157.747 409.908 157.747ZM435.133 150.839C433.715 150.839 432.438 150.61 431.301 150.153C430.164 149.696 429.25 149.016 428.559 148.114C427.867 147.212 427.475 146.092 427.381 144.756H431.037C431.143 145.753 431.535 146.526 432.215 147.077C432.906 147.616 433.855 147.885 435.062 147.885C436.246 147.885 437.178 147.645 437.857 147.165C438.537 146.684 438.877 146.075 438.877 145.337C438.877 144.704 438.631 144.2 438.139 143.825C437.658 143.438 437.014 143.157 436.205 142.981L433.129 142.296C431.383 141.909 430.059 141.27 429.156 140.38C428.254 139.489 427.803 138.358 427.803 136.987C427.803 135.885 428.096 134.919 428.682 134.087C429.279 133.255 430.111 132.604 431.178 132.135C432.244 131.667 433.486 131.432 434.904 131.432C436.299 131.432 437.535 131.678 438.613 132.171C439.703 132.663 440.559 133.36 441.18 134.262C441.812 135.165 442.146 136.243 442.182 137.497H438.631C438.619 136.594 438.279 135.85 437.611 135.264C436.943 134.667 436.059 134.368 434.957 134.368C433.902 134.368 433.064 134.614 432.443 135.106C431.822 135.598 431.512 136.202 431.512 136.917C431.512 137.549 431.746 138.059 432.215 138.446C432.695 138.833 433.352 139.12 434.184 139.307L437.348 140.01C439.164 140.409 440.494 141.024 441.338 141.856C442.193 142.688 442.621 143.778 442.621 145.126C442.621 146.309 442.293 147.329 441.637 148.184C440.992 149.028 440.107 149.684 438.982 150.153C437.857 150.61 436.574 150.839 435.133 150.839ZM455.207 131.837V134.895H444.449V131.837H455.207ZM447.719 126.774H451.428V145.495C451.428 146.174 451.568 146.655 451.85 146.936C452.143 147.206 452.658 147.34 453.396 147.34C453.678 147.34 453.988 147.34 454.328 147.34C454.668 147.34 454.961 147.34 455.207 147.34V150.399C454.902 150.399 454.533 150.399 454.1 150.399C453.678 150.399 453.268 150.399 452.869 150.399C451.123 150.399 449.828 150.036 448.984 149.309C448.141 148.571 447.719 147.458 447.719 145.969V126.774ZM465.754 150.821C463.914 150.821 462.332 150.405 461.008 149.573C459.695 148.741 458.682 147.598 457.967 146.145C457.264 144.68 456.912 143.016 456.912 141.153C456.912 139.255 457.281 137.579 458.02 136.126C458.758 134.661 459.777 133.512 461.078 132.68C462.379 131.837 463.873 131.415 465.561 131.415C466.873 131.415 468.057 131.649 469.111 132.118C470.178 132.587 471.092 133.255 471.854 134.122C472.615 134.977 473.201 135.997 473.611 137.18C474.021 138.364 474.227 139.676 474.227 141.118V142.12H458.582V139.307H472.275L470.641 140.169C470.641 139.02 470.436 138.024 470.025 137.18C469.615 136.325 469.029 135.669 468.268 135.212C467.518 134.743 466.627 134.508 465.596 134.508C464.576 134.508 463.691 134.743 462.941 135.212C462.191 135.669 461.605 136.325 461.184 137.18C460.773 138.024 460.568 139.02 460.568 140.169V141.768C460.568 142.94 460.773 143.977 461.184 144.88C461.594 145.77 462.186 146.467 462.959 146.971C463.744 147.475 464.693 147.727 465.807 147.727C466.615 147.727 467.33 147.604 467.951 147.358C468.572 147.1 469.088 146.749 469.498 146.303C469.908 145.858 470.201 145.342 470.377 144.756H473.945C473.723 145.952 473.225 147.006 472.451 147.921C471.689 148.823 470.729 149.532 469.568 150.047C468.42 150.563 467.148 150.821 465.754 150.821ZM477.443 150.399V131.837H481.047V135.756H480.695C481.047 134.819 481.516 134.034 482.102 133.401C482.699 132.756 483.385 132.276 484.158 131.96C484.932 131.631 485.74 131.467 486.584 131.467C488.025 131.467 489.256 131.883 490.275 132.715C491.307 133.536 491.939 134.549 492.174 135.756H491.594C491.852 134.936 492.268 134.204 492.842 133.559C493.428 132.915 494.143 132.405 494.986 132.03C495.83 131.655 496.768 131.467 497.799 131.467C498.959 131.467 500.008 131.719 500.945 132.223C501.883 132.727 502.627 133.477 503.178 134.473C503.729 135.458 504.004 136.694 504.004 138.182V150.399H500.277V138.499C500.277 137.174 499.908 136.214 499.17 135.616C498.432 135.018 497.559 134.719 496.551 134.719C495.73 134.719 495.021 134.895 494.424 135.247C493.826 135.598 493.363 136.079 493.035 136.688C492.707 137.297 492.543 138.001 492.543 138.797V150.399H488.887V138.253C488.887 137.186 488.541 136.331 487.85 135.686C487.17 135.042 486.303 134.719 485.248 134.719C484.533 134.719 483.859 134.889 483.227 135.229C482.605 135.569 482.102 136.073 481.715 136.741C481.34 137.397 481.152 138.217 481.152 139.202V150.399H477.443Z" fill="white"/>
<path d="M409.656 351.821C407.57 351.821 405.748 351.417 404.189 350.608C402.631 349.799 401.418 348.692 400.551 347.286C399.695 345.868 399.268 344.251 399.268 342.434V325.208H403.152V342.118C403.152 343.313 403.41 344.38 403.926 345.317C404.453 346.243 405.203 346.969 406.176 347.497C407.16 348.024 408.326 348.288 409.674 348.288C411.01 348.288 412.164 348.024 413.137 347.497C414.109 346.958 414.859 346.225 415.387 345.299C415.914 344.374 416.178 343.313 416.178 342.118V325.208H420.062V342.434C420.062 344.251 419.629 345.868 418.762 347.286C417.906 348.704 416.699 349.817 415.141 350.626C413.582 351.422 411.754 351.821 409.656 351.821ZM431.312 351.839C429.895 351.839 428.617 351.61 427.48 351.153C426.344 350.696 425.43 350.016 424.738 349.114C424.047 348.212 423.654 347.092 423.561 345.756H427.217C427.322 346.753 427.715 347.526 428.395 348.077C429.086 348.616 430.035 348.885 431.242 348.885C432.426 348.885 433.357 348.645 434.037 348.165C434.717 347.684 435.057 347.075 435.057 346.337C435.057 345.704 434.811 345.2 434.318 344.825C433.838 344.438 433.193 344.157 432.385 343.981L429.309 343.296C427.562 342.909 426.238 342.27 425.336 341.38C424.434 340.489 423.982 339.358 423.982 337.987C423.982 336.885 424.275 335.919 424.861 335.087C425.459 334.255 426.291 333.604 427.357 333.135C428.424 332.667 429.666 332.432 431.084 332.432C432.479 332.432 433.715 332.678 434.793 333.171C435.883 333.663 436.738 334.36 437.359 335.262C437.992 336.165 438.326 337.243 438.361 338.497H434.811C434.799 337.594 434.459 336.85 433.791 336.264C433.123 335.667 432.238 335.368 431.137 335.368C430.082 335.368 429.244 335.614 428.623 336.106C428.002 336.598 427.691 337.202 427.691 337.917C427.691 338.549 427.926 339.059 428.395 339.446C428.875 339.833 429.531 340.12 430.363 340.307L433.527 341.01C435.344 341.409 436.674 342.024 437.518 342.856C438.373 343.688 438.801 344.778 438.801 346.126C438.801 347.309 438.473 348.329 437.816 349.184C437.172 350.028 436.287 350.684 435.162 351.153C434.037 351.61 432.754 351.839 431.312 351.839ZM450.016 351.821C448.176 351.821 446.594 351.405 445.27 350.573C443.957 349.741 442.943 348.598 442.229 347.145C441.525 345.68 441.174 344.016 441.174 342.153C441.174 340.255 441.543 338.579 442.281 337.126C443.02 335.661 444.039 334.512 445.34 333.68C446.641 332.837 448.135 332.415 449.822 332.415C451.135 332.415 452.318 332.649 453.373 333.118C454.439 333.587 455.354 334.255 456.115 335.122C456.877 335.977 457.463 336.997 457.873 338.18C458.283 339.364 458.488 340.676 458.488 342.118V343.12H442.844V340.307H456.537L454.902 341.169C454.902 340.02 454.697 339.024 454.287 338.18C453.877 337.325 453.291 336.669 452.529 336.212C451.779 335.743 450.889 335.508 449.857 335.508C448.838 335.508 447.953 335.743 447.203 336.212C446.453 336.669 445.867 337.325 445.445 338.18C445.035 339.024 444.83 340.02 444.83 341.169V342.768C444.83 343.94 445.035 344.977 445.445 345.88C445.855 346.77 446.447 347.467 447.221 347.971C448.006 348.475 448.955 348.727 450.068 348.727C450.877 348.727 451.592 348.604 452.213 348.358C452.834 348.1 453.35 347.749 453.76 347.303C454.17 346.858 454.463 346.342 454.639 345.756H458.207C457.984 346.952 457.486 348.006 456.713 348.921C455.951 349.823 454.99 350.532 453.83 351.047C452.682 351.563 451.41 351.821 450.016 351.821ZM461.705 351.399V332.837H465.256V335.842H465.326C465.666 334.823 466.199 334.032 466.926 333.469C467.664 332.895 468.625 332.608 469.809 332.608C470.09 332.608 470.348 332.62 470.582 332.643C470.828 332.655 471.021 332.672 471.162 332.696V336.159C471.021 336.124 470.77 336.089 470.406 336.053C470.043 336.006 469.645 335.983 469.211 335.983C468.52 335.983 467.881 336.141 467.295 336.458C466.721 336.774 466.264 337.26 465.924 337.917C465.584 338.573 465.414 339.411 465.414 340.43V351.399H461.705ZM480.812 351.839C479.395 351.839 478.117 351.61 476.98 351.153C475.844 350.696 474.93 350.016 474.238 349.114C473.547 348.212 473.154 347.092 473.061 345.756H476.717C476.822 346.753 477.215 347.526 477.895 348.077C478.586 348.616 479.535 348.885 480.742 348.885C481.926 348.885 482.857 348.645 483.537 348.165C484.217 347.684 484.557 347.075 484.557 346.337C484.557 345.704 484.311 345.2 483.818 344.825C483.338 344.438 482.693 344.157 481.885 343.981L478.809 343.296C477.062 342.909 475.738 342.27 474.836 341.38C473.934 340.489 473.482 339.358 473.482 337.987C473.482 336.885 473.775 335.919 474.361 335.087C474.959 334.255 475.791 333.604 476.857 333.135C477.924 332.667 479.166 332.432 480.584 332.432C481.979 332.432 483.215 332.678 484.293 333.171C485.383 333.663 486.238 334.36 486.859 335.262C487.492 336.165 487.826 337.243 487.861 338.497H484.311C484.299 337.594 483.959 336.85 483.291 336.264C482.623 335.667 481.738 335.368 480.637 335.368C479.582 335.368 478.744 335.614 478.123 336.106C477.502 336.598 477.191 337.202 477.191 337.917C477.191 338.549 477.426 339.059 477.895 339.446C478.375 339.833 479.031 340.12 479.863 340.307L483.027 341.01C484.844 341.409 486.174 342.024 487.018 342.856C487.873 343.688 488.301 344.778 488.301 346.126C488.301 347.309 487.973 348.329 487.316 349.184C486.672 350.028 485.787 350.684 484.662 351.153C483.537 351.61 482.254 351.839 480.812 351.839Z" fill="white"/>
<path d="M38.3906 351.399V325.208H42.293V347.971H54.6855V351.399H38.3906ZM57.6387 351.399V332.837H61.3477V351.399H57.6387ZM59.4844 329.637C58.8281 329.637 58.2715 329.421 57.8145 328.987C57.3691 328.542 57.1465 328.003 57.1465 327.37C57.1465 326.725 57.3691 326.186 57.8145 325.753C58.2715 325.307 58.8281 325.085 59.4844 325.085C60.1406 325.085 60.6973 325.307 61.1543 325.753C61.6113 326.186 61.8398 326.725 61.8398 327.37C61.8398 328.003 61.6113 328.542 61.1543 328.987C60.6973 329.421 60.1406 329.637 59.4844 329.637ZM74.9707 351.768C74.1738 351.768 73.4121 351.651 72.6855 351.417C71.9707 351.182 71.3145 350.831 70.7168 350.362C70.1309 349.881 69.6328 349.284 69.2227 348.569H69.1875V351.399H65.5488V325.208H69.2578V335.526H69.293C69.6914 334.835 70.1777 334.266 70.752 333.821C71.3379 333.376 71.9883 333.042 72.7031 332.819C73.4297 332.585 74.1914 332.467 74.9883 332.467C76.5938 332.467 77.9941 332.878 79.1895 333.698C80.3965 334.506 81.334 335.637 82.002 337.09C82.6816 338.532 83.0215 340.208 83.0215 342.118C83.0215 344.028 82.6875 345.71 82.0195 347.163C81.3516 348.604 80.4141 349.735 79.207 350.555C78 351.364 76.5879 351.768 74.9707 351.768ZM74.2148 348.569C75.2227 348.569 76.1016 348.323 76.8516 347.831C77.6016 347.327 78.1875 346.6 78.6094 345.651C79.043 344.69 79.2598 343.512 79.2598 342.118C79.2598 340.712 79.043 339.528 78.6094 338.567C78.1875 337.606 77.6016 336.88 76.8516 336.387C76.1016 335.895 75.2227 335.649 74.2148 335.649C73.1602 335.649 72.2402 335.919 71.4551 336.458C70.6816 336.985 70.0781 337.735 69.6445 338.708C69.2227 339.669 69.0117 340.805 69.0117 342.118C69.0117 343.407 69.2227 344.538 69.6445 345.51C70.0781 346.483 70.6816 347.239 71.4551 347.778C72.2402 348.305 73.1602 348.569 74.2148 348.569ZM86.291 351.399V332.837H89.8418V335.842H89.9121C90.252 334.823 90.7852 334.032 91.5117 333.469C92.25 332.895 93.2109 332.608 94.3945 332.608C94.6758 332.608 94.9336 332.62 95.168 332.643C95.4141 332.655 95.6074 332.672 95.748 332.696V336.159C95.6074 336.124 95.3555 336.089 94.9922 336.053C94.6289 336.006 94.2305 335.983 93.7969 335.983C93.1055 335.983 92.4668 336.141 91.8809 336.458C91.3066 336.774 90.8496 337.26 90.5098 337.917C90.1699 338.573 90 339.411 90 340.43V351.399H86.291ZM103.729 351.698C102.498 351.698 101.396 351.487 100.424 351.065C99.4629 350.643 98.7012 350.016 98.1387 349.184C97.5762 348.352 97.2949 347.321 97.2949 346.09C97.2949 345.036 97.4941 344.169 97.8926 343.489C98.3027 342.809 98.8535 342.27 99.5449 341.872C100.236 341.473 101.021 341.174 101.9 340.975C102.779 340.764 103.688 340.606 104.625 340.501C105.797 340.348 106.717 340.231 107.385 340.149C108.064 340.055 108.545 339.915 108.826 339.727C109.119 339.528 109.266 339.206 109.266 338.76V338.602C109.266 338.005 109.119 337.477 108.826 337.02C108.533 336.551 108.105 336.182 107.543 335.913C106.98 335.643 106.307 335.508 105.521 335.508C104.736 335.508 104.039 335.637 103.43 335.895C102.832 336.153 102.352 336.51 101.988 336.967C101.637 337.413 101.438 337.922 101.391 338.497H97.752C97.8105 337.313 98.168 336.27 98.8242 335.368C99.4805 334.465 100.383 333.756 101.531 333.241C102.68 332.725 104.027 332.467 105.574 332.467C106.711 332.467 107.736 332.614 108.65 332.907C109.564 333.2 110.338 333.622 110.971 334.172C111.615 334.712 112.102 335.362 112.43 336.124C112.77 336.885 112.939 337.735 112.939 338.672V351.399H109.283V348.762H109.213C108.955 349.266 108.604 349.741 108.158 350.186C107.713 350.631 107.127 350.995 106.4 351.276C105.686 351.557 104.795 351.698 103.729 351.698ZM104.484 348.71C105.574 348.71 106.471 348.516 107.174 348.13C107.889 347.731 108.416 347.21 108.756 346.565C109.107 345.921 109.283 345.217 109.283 344.456V342.276C109.154 342.381 108.943 342.481 108.65 342.575C108.369 342.657 108.023 342.739 107.613 342.821C107.203 342.891 106.758 342.967 106.277 343.049C105.797 343.131 105.316 343.202 104.836 343.26C104.156 343.354 103.523 343.512 102.938 343.735C102.352 343.946 101.877 344.245 101.514 344.631C101.162 345.018 100.986 345.528 100.986 346.161C100.986 346.688 101.127 347.145 101.408 347.532C101.689 347.907 102.094 348.2 102.621 348.411C103.148 348.61 103.77 348.71 104.484 348.71ZM117.123 351.399V332.837H120.674V335.842H120.744C121.084 334.823 121.617 334.032 122.344 333.469C123.082 332.895 124.043 332.608 125.227 332.608C125.508 332.608 125.766 332.62 126 332.643C126.246 332.655 126.439 332.672 126.58 332.696V336.159C126.439 336.124 126.188 336.089 125.824 336.053C125.461 336.006 125.062 335.983 124.629 335.983C123.938 335.983 123.299 336.141 122.713 336.458C122.139 336.774 121.682 337.26 121.342 337.917C121.002 338.573 120.832 339.411 120.832 340.43V351.399H117.123ZM129.99 358.747V355.618H131.994C132.393 355.618 132.732 355.542 133.014 355.389C133.295 355.249 133.547 355.02 133.77 354.704C134.004 354.387 134.215 353.983 134.402 353.491L135.246 351.276L128.074 332.837H132.047L135.756 343.014C136.096 343.975 136.424 344.936 136.74 345.897C137.068 346.846 137.379 347.801 137.672 348.762H136.67C136.963 347.801 137.268 346.846 137.584 345.897C137.912 344.936 138.246 343.975 138.586 343.014L142.242 332.837H146.162L137.725 354.651C137.373 355.553 136.939 356.303 136.424 356.901C135.908 357.51 135.311 357.967 134.631 358.272C133.951 358.589 133.189 358.747 132.346 358.747C131.959 358.747 131.566 358.747 131.168 358.747C130.77 358.747 130.377 358.747 129.99 358.747Z" fill="white"/>
<defs>
<filter id="filter0_di_16_141" x="25.601" y="2.76566e-05" width="137.675" height="107.723" filterUnits="userSpaceOnUse" color-interpolation-filters="sRGB">
<feFlood flood-opacity="0" result="BackgroundImageFix"/>
<feColorMatrix in="SourceAlpha" type="matrix" values="0 0 0 0 0 0 0 0 0 0 0 0 0 0 0 0 0 0 127 0" result="hardAlpha"/>
<feOffset/>
<feGaussianBlur stdDeviation="2.69951"/>
<feComposite in2="hardAlpha" operator="out"/>
<feColorMatrix type="matrix" values="0 0 0 0 0 0 0 0 0 0 0 0 0 0 0 0 0 0 0.25 0"/>
<feBlend mode="normal" in2="BackgroundImageFix" result="effect1_dropShadow_16_141"/>
<feBlend mode="normal" in="SourceGraphic" in2="effect1_dropShadow_16_141" result="shape"/>
<feColorMatrix in="SourceAlpha" type="matrix" values="0 0 0 0 0 0 0 0 0 0 0 0 0 0 0 0 0 0 127 0" result="hardAlpha"/>
<feOffset dy="0.674878"/>
<feGaussianBlur stdDeviation="0.472414"/>
<feComposite in2="hardAlpha" operator="arithmetic" k2="-1" k3="1"/>
<feColorMatrix type="matrix" values="0 0 0 0 1 0 0 0 0 1 0 0 0 0 1 0 0 0 0.25 0"/>
<feBlend mode="normal" in2="shape" result="effect2_innerShadow_16_141"/>
</filter>
<filter id="filter1_di_16_141" x="13.2943" y="2.42951" width="162.51" height="117.969" filterUnits="userSpaceOnUse" color-interpolation-filters="sRGB">
<feFlood flood-opacity="0" result="BackgroundImageFix"/>
<feColorMatrix in="SourceAlpha" type="matrix" values="0 0 0 0 0 0 0 0 0 0 0 0 0 0 0 0 0 0 127 0" result="hardAlpha"/>
<feOffset/>
<feGaussianBlur stdDeviation="8.90838"/>
<feComposite in2="hardAlpha" operator="out"/>
<feColorMatrix type="matrix" values="0 0 0 0 0 0 0 0 0 0 0 0 0 0 0 0 0 0 0.25 0"/>
<feBlend mode="normal" in2="BackgroundImageFix" result="effect1_dropShadow_16_141"/>
<feBlend mode="normal" in="SourceGraphic" in2="effect1_dropShadow_16_141" result="shape"/>
<feColorMatrix in="SourceAlpha" type="matrix" values="0 0 0 0 0 0 0 0 0 0 0 0 0 0 0 0 0 0 127 0" result="hardAlpha"/>
<feOffset dy="0.674878"/>
<feGaussianBlur stdDeviation="0.404926"/>
<feComposite in2="hardAlpha" operator="arithmetic" k2="-1" k3="1"/>
<feColorMatrix type="matrix" values="0 0 0 0 1 0 0 0 0 1 0 0 0 0 1 0 0 0 0.82 0"/>
<feBlend mode="normal" in2="shape" result="effect2_innerShadow_16_141"/>
</filter>
<filter id="filter2_di_16_141" x="376.601" y="2.76566e-05" width="137.675" height="107.723" filterUnits="userSpaceOnUse" color-interpolation-filters="sRGB">
<feFlood flood-opacity="0" result="BackgroundImageFix"/>
<feColorMatrix in="SourceAlpha" type="matrix" values="0 0 0 0 0 0 0 0 0 0 0 0 0 0 0 0 0 0 127 0" result="hardAlpha"/>
<feOffset/>
<feGaussianBlur stdDeviation="2.69951"/>
<feComposite in2="hardAlpha" operator="out"/>
<feColorMatrix type="matrix" values="0 0 0 0 0 0 0 0 0 0 0 0 0 0 0 0 0 0 0.25 0"/>
<feBlend mode="normal" in2="BackgroundImageFix" result="effect1_dropShadow_16_141"/>
<feBlend mode="normal" in="SourceGraphic" in2="effect1_dropShadow_16_141" result="shape"/>
<feColorMatrix in="SourceAlpha" type="matrix" values="0 0 0 0 0 0 0 0 0 0 0 0 0 0 0 0 0 0 127 0" result="hardAlpha"/>
<feOffset dy="0.674878"/>
<feGaussianBlur stdDeviation="0.472414"/>
<feComposite in2="hardAlpha" operator="arithmetic" k2="-1" k3="1"/>
<feColorMatrix type="matrix" values="0 0 0 0 1 0 0 0 0 1 0 0 0 0 1 0 0 0 0.25 0"/>
<feBlend mode="normal" in2="shape" result="effect2_innerShadow_16_141"/>
</filter>
<filter id="filter3_di_16_141" x="364.294" y="2.42951" width="162.51" height="117.969" filterUnits="userSpaceOnUse" color-interpolation-filters="sRGB">
<feFlood flood-opacity="0" result="BackgroundImageFix"/>
<feColorMatrix in="SourceAlpha" type="matrix" values="0 0 0 0 0 0 0 0 0 0 0 0 0 0 0 0 0 0 127 0" result="hardAlpha"/>
<feOffset/>
<feGaussianBlur stdDeviation="8.90838"/>
<feComposite in2="hardAlpha" operator="out"/>
<feColorMatrix type="matrix" values="0 0 0 0 0 0 0 0 0 0 0 0 0 0 0 0 0 0 0.25 0"/>
<feBlend mode="normal" in2="BackgroundImageFix" result="effect1_dropShadow_16_141"/>
<feBlend mode="normal" in="SourceGraphic" in2="effect1_dropShadow_16_141" result="shape"/>
<feColorMatrix in="SourceAlpha" type="matrix" values="0 0 0 0 0 0 0 0 0 0 0 0 0 0 0 0 0 0 127 0" result="hardAlpha"/>
<feOffset dy="0.674878"/>
<feGaussianBlur stdDeviation="0.404926"/>
<feComposite in2="hardAlpha" operator="arithmetic" k2="-1" k3="1"/>
<feColorMatrix type="matrix" values="0 0 0 0 1 0 0 0 0 1 0 0 0 0 1 0 0 0 0.82 0"/>
<feBlend mode="normal" in2="shape" result="effect2_innerShadow_16_141"/>
</filter>
<filter id="filter4_di_16_141" x="376.601" y="201" width="137.675" height="107.723" filterUnits="userSpaceOnUse" color-interpolation-filters="sRGB">
<feFlood flood-opacity="0" result="BackgroundImageFix"/>
<feColorMatrix in="SourceAlpha" type="matrix" values="0 0 0 0 0 0 0 0 0 0 0 0 0 0 0 0 0 0 127 0" result="hardAlpha"/>
<feOffset/>
<feGaussianBlur stdDeviation="2.69951"/>
<feComposite in2="hardAlpha" operator="out"/>
<feColorMatrix type="matrix" values="0 0 0 0 0 0 0 0 0 0 0 0 0 0 0 0 0 0 0.25 0"/>
<feBlend mode="normal" in2="BackgroundImageFix" result="effect1_dropShadow_16_141"/>
<feBlend mode="normal" in="SourceGraphic" in2="effect1_dropShadow_16_141" result="shape"/>
<feColorMatrix in="SourceAlpha" type="matrix" values="0 0 0 0 0 0 0 0 0 0 0 0 0 0 0 0 0 0 127 0" result="hardAlpha"/>
<feOffset dy="0.674878"/>
<feGaussianBlur stdDeviation="0.472414"/>
<feComposite in2="hardAlpha" operator="arithmetic" k2="-1" k3="1"/>
<feColorMatrix type="matrix" values="0 0 0 0 1 0 0 0 0 1 0 0 0 0 1 0 0 0 0.25 0"/>
<feBlend mode="normal" in2="shape" result="effect2_innerShadow_16_141"/>
</filter>
<filter id="filter5_di_16_141" x="364.294" y="203.43" width="162.51" height="117.969" filterUnits="userSpaceOnUse" color-interpolation-filters="sRGB">
<feFlood flood-opacity="0" result="BackgroundImageFix"/>
<feColorMatrix in="SourceAlpha" type="matrix" values="0 0 0 0 0 0 0 0 0 0 0 0 0 0 0 0 0 0 127 0" result="hardAlpha"/>
<feOffset/>
<feGaussianBlur stdDeviation="8.90838"/>
<feComposite in2="hardAlpha" operator="out"/>
<feColorMatrix type="matrix" values="0 0 0 0 0 0 0 0 0 0 0 0 0 0 0 0 0 0 0.25 0"/>
<feBlend mode="normal" in2="BackgroundImageFix" result="effect1_dropShadow_16_141"/>
<feBlend mode="normal" in="SourceGraphic" in2="effect1_dropShadow_16_141" result="shape"/>
<feColorMatrix in="SourceAlpha" type="matrix" values="0 0 0 0 0 0 0 0 0 0 0 0 0 0 0 0 0 0 127 0" result="hardAlpha"/>
<feOffset dy="0.674878"/>
<feGaussianBlur stdDeviation="0.404926"/>
<feComposite in2="hardAlpha" operator="arithmetic" k2="-1" k3="1"/>
<feColorMatrix type="matrix" values="0 0 0 0 1 0 0 0 0 1 0 0 0 0 1 0 0 0 0.82 0"/>
<feBlend mode="normal" in2="shape" result="effect2_innerShadow_16_141"/>
</filter>
<filter id="filter6_di_16_141" x="26.601" y="201" width="137.675" height="107.723" filterUnits="userSpaceOnUse" color-interpolation-filters="sRGB">
<feFlood flood-opacity="0" result="BackgroundImageFix"/>
<feColorMatrix in="SourceAlpha" type="matrix" values="0 0 0 0 0 0 0 0 0 0 0 0 0 0 0 0 0 0 127 0" result="hardAlpha"/>
<feOffset/>
<feGaussianBlur stdDeviation="2.69951"/>
<feComposite in2="hardAlpha" operator="out"/>
<feColorMatrix type="matrix" values="0 0 0 0 0 0 0 0 0 0 0 0 0 0 0 0 0 0 0.25 0"/>
<feBlend mode="normal" in2="BackgroundImageFix" result="effect1_dropShadow_16_141"/>
<feBlend mode="normal" in="SourceGraphic" in2="effect1_dropShadow_16_141" result="shape"/>
<feColorMatrix in="SourceAlpha" type="matrix" values="0 0 0 0 0 0 0 0 0 0 0 0 0 0 0 0 0 0 127 0" result="hardAlpha"/>
<feOffset dy="0.674878"/>
<feGaussianBlur stdDeviation="0.472414"/>
<feComposite in2="hardAlpha" operator="arithmetic" k2="-1" k3="1"/>
<feColorMatrix type="matrix" values="0 0 0 0 1 0 0 0 0 1 0 0 0 0 1 0 0 0 0.25 0"/>
<feBlend mode="normal" in2="shape" result="effect2_innerShadow_16_141"/>
</filter>
<filter id="filter7_di_16_141" x="14.2943" y="203.43" width="162.51" height="117.969" filterUnits="userSpaceOnUse" color-interpolation-filters="sRGB">
<feFlood flood-opacity="0" result="BackgroundImageFix"/>
<feColorMatrix in="SourceAlpha" type="matrix" values="0 0 0 0 0 0 0 0 0 0 0 0 0 0 0 0 0 0 127 0" result="hardAlpha"/>
<feOffset/>
<feGaussianBlur stdDeviation="8.90838"/>
<feComposite in2="hardAlpha" operator="out"/>
<feColorMatrix type="matrix" values="0 0 0 0 0 0 0 0 0 0 0 0 0 0 0 0 0 0 0.25 0"/>
<feBlend mode="normal" in2="BackgroundImageFix" result="effect1_dropShadow_16_141"/>
<feBlend mode="normal" in="SourceGraphic" in2="effect1_dropShadow_16_141" result="shape"/>
<feColorMatrix in="SourceAlpha" type="matrix" values="0 0 0 0 0 0 0 0 0 0 0 0 0 0 0 0 0 0 127 0" result="hardAlpha"/>
<feOffset dy="0.674878"/>
<feGaussianBlur stdDeviation="0.404926"/>
<feComposite in2="hardAlpha" operator="arithmetic" k2="-1" k3="1"/>
<feColorMatrix type="matrix" values="0 0 0 0 1 0 0 0 0 1 0 0 0 0 1 0 0 0 0.82 0"/>
<feBlend mode="normal" in2="shape" result="effect2_innerShadow_16_141"/>
</filter>
<linearGradient id="paint0_linear_16_141" x1="94.5492" y1="21.596" x2="94.4378" y2="2.69955" gradientUnits="userSpaceOnUse">
<stop stop-color="#00ADE3"/>
<stop offset="1" stop-color="#26C1EF"/>
</linearGradient>
<linearGradient id="paint1_linear_16_141" x1="94.5496" y1="20.2463" x2="94.5496" y2="102.581" gradientUnits="userSpaceOnUse">
<stop stop-color="#4AD0FB"/>
<stop offset="1" stop-color="#00B3E6"/>
</linearGradient>
<linearGradient id="paint2_linear_16_141" x1="445.549" y1="21.596" x2="445.438" y2="2.69955" gradientUnits="userSpaceOnUse">
<stop stop-color="#00ADE3"/>
<stop offset="1" stop-color="#26C1EF"/>
</linearGradient>
<linearGradient id="paint3_linear_16_141" x1="445.55" y1="20.2463" x2="445.55" y2="102.581" gradientUnits="userSpaceOnUse">
<stop stop-color="#4AD0FB"/>
<stop offset="1" stop-color="#00B3E6"/>
</linearGradient>
<linearGradient id="paint4_linear_16_141" x1="445.549" y1="222.596" x2="445.438" y2="203.7" gradientUnits="userSpaceOnUse">
<stop stop-color="#00ADE3"/>
<stop offset="1" stop-color="#26C1EF"/>
</linearGradient>
<linearGradient id="paint5_linear_16_141" x1="445.55" y1="221.246" x2="445.55" y2="303.581" gradientUnits="userSpaceOnUse">
<stop stop-color="#4AD0FB"/>
<stop offset="1" stop-color="#00B3E6"/>
</linearGradient>
<linearGradient id="paint6_linear_16_141" x1="95.5492" y1="222.596" x2="95.4378" y2="203.7" gradientUnits="userSpaceOnUse">
<stop stop-color="#00ADE3"/>
<stop offset="1" stop-color="#26C1EF"/>
</linearGradient>
<linearGradient id="paint7_linear_16_141" x1="95.5496" y1="221.246" x2="95.5496" y2="303.581" gradientUnits="userSpaceOnUse">
<stop stop-color="#4AD0FB"/>
<stop offset="1" stop-color="#00B3E6"/>
</linearGradient>
</defs>
</svg>
