<svg width="300" height="115" viewBox="0 0 611 231" fill="none" xmlns="http://www.w3.org/2000/svg">
<path d="M48.2812 222L57.791 195.809H62.502L71.9414 222H67.7051L62.6602 207.234C62.25 205.98 61.8047 204.609 61.3242 203.121C60.8438 201.633 60.2695 199.787 59.6016 197.584H60.709C60.041 199.787 59.4668 201.633 58.9863 203.121C58.5059 204.609 58.0547 205.98 57.6328 207.234L52.4297 222H48.2812ZM53.5547 215.197V211.875H66.6855V215.197H53.5547ZM74.3496 229.348V203.438H77.9883V206.109H78.041C78.4277 205.43 78.9141 204.867 79.5 204.422C80.0977 203.977 80.7598 203.643 81.4863 203.42C82.2246 203.186 82.9922 203.068 83.7891 203.068C85.3945 203.068 86.7949 203.479 87.9902 204.299C89.1973 205.107 90.1348 206.238 90.8027 207.691C91.4824 209.133 91.8223 210.809 91.8223 212.719C91.8223 214.629 91.4883 216.311 90.8203 217.764C90.1523 219.205 89.2148 220.336 88.0078 221.156C86.8008 221.965 85.3887 222.369 83.7715 222.369C82.9746 222.369 82.2188 222.252 81.5039 222.018C80.8008 221.783 80.1621 221.432 79.5879 220.963C79.0137 220.494 78.5215 219.908 78.1113 219.205H78.0586V229.348H74.3496ZM83.0156 219.17C84.0234 219.17 84.9023 218.924 85.6523 218.432C86.4023 217.928 86.9883 217.201 87.4102 216.252C87.8438 215.291 88.0605 214.113 88.0605 212.719C88.0605 211.312 87.8438 210.129 87.4102 209.168C86.9883 208.207 86.4023 207.48 85.6523 206.988C84.9023 206.496 84.0234 206.25 83.0156 206.25C81.9609 206.25 81.041 206.52 80.2559 207.059C79.4824 207.586 78.8789 208.336 78.4453 209.309C78.0234 210.27 77.8125 211.406 77.8125 212.719C77.8125 214.008 78.0234 215.139 78.4453 216.111C78.8789 217.084 79.4824 217.84 80.2559 218.379C81.041 218.906 81.9609 219.17 83.0156 219.17ZM95.0918 229.348V203.438H98.7305V206.109H98.7832C99.1699 205.43 99.6562 204.867 100.242 204.422C100.84 203.977 101.502 203.643 102.229 203.42C102.967 203.186 103.734 203.068 104.531 203.068C106.137 203.068 107.537 203.479 108.732 204.299C109.939 205.107 110.877 206.238 111.545 207.691C112.225 209.133 112.564 210.809 112.564 212.719C112.564 214.629 112.23 216.311 111.562 217.764C110.895 219.205 109.957 220.336 108.75 221.156C107.543 221.965 106.131 222.369 104.514 222.369C103.717 222.369 102.961 222.252 102.246 222.018C101.543 221.783 100.904 221.432 100.33 220.963C99.7559 220.494 99.2637 219.908 98.8535 219.205H98.8008V229.348H95.0918ZM103.758 219.17C104.766 219.17 105.645 218.924 106.395 218.432C107.145 217.928 107.73 217.201 108.152 216.252C108.586 215.291 108.803 214.113 108.803 212.719C108.803 211.312 108.586 210.129 108.152 209.168C107.73 208.207 107.145 207.48 106.395 206.988C105.645 206.496 104.766 206.25 103.758 206.25C102.703 206.25 101.783 206.52 100.998 207.059C100.225 207.586 99.6211 208.336 99.1875 209.309C98.7656 210.27 98.5547 211.406 98.5547 212.719C98.5547 214.008 98.7656 215.139 99.1875 216.111C99.6211 217.084 100.225 217.84 100.998 218.379C101.783 218.906 102.703 219.17 103.758 219.17ZM115.412 229.348V226.219H117.416C117.814 226.219 118.154 226.143 118.436 225.99C118.717 225.85 118.969 225.621 119.191 225.305C119.426 224.988 119.637 224.584 119.824 224.092L120.668 221.877L113.496 203.438H117.469L121.178 213.615C121.518 214.576 121.846 215.537 122.162 216.498C122.49 217.447 122.801 218.402 123.094 219.363H122.092C122.385 218.402 122.689 217.447 123.006 216.498C123.334 215.537 123.668 214.576 124.008 213.615L127.664 203.438H131.584L123.146 225.252C122.795 226.154 122.361 226.904 121.846 227.502C121.33 228.111 120.732 228.568 120.053 228.873C119.373 229.189 118.611 229.348 117.768 229.348C117.381 229.348 116.988 229.348 116.59 229.348C116.191 229.348 115.799 229.348 115.412 229.348Z" fill="white"/>
<path d="M46 0H136C161.405 0 182 20.5949 182 46V129C182 154.405 161.405 175 136 175H46C20.5949 175 0 154.405 0 129V46C0 20.5949 20.5949 0 46 0Z" fill="url(#paint0_linear_13_96)"/>
<g filter="url(#filter0_i_13_96)">
<path d="M46 0H136C161.405 0 182 20.5949 182 46V129C182 154.405 161.405 175 136 175H46C20.5949 175 0 154.405 0 129V46C0 20.5949 20.5949 0 46 0Z" fill="url(#paint1_linear_13_96)"/>
<path d="M46 0H136C161.405 0 182 20.5949 182 46V129C182 154.405 161.405 175 136 175H46C20.5949 175 0 154.405 0 129V46C0 20.5949 20.5949 0 46 0Z" fill="url(#paint2_linear_13_96)"/>
</g>
<path d="M91 155.523C131.053 155.523 163.523 125.292 163.523 88C163.523 50.7081 131.053 20.4771 91 20.4771C50.9467 20.4771 18.4771 50.7081 18.4771 88C18.4771 125.292 50.9467 155.523 91 155.523Z" stroke="#C1C7DD" stroke-opacity="0.433996" stroke-width="0.954248"/>
<path d="M154.935 32.0327H27.0653V155.523H154.935V32.0327Z" stroke="#C1C7DD" stroke-opacity="0.433996" stroke-width="0.954248"/>
<path d="M91.4771 63.0784C100.7 63.0784 108.176 56.1286 108.176 47.5555C108.176 38.9825 100.7 32.0327 91.4771 32.0327C82.2543 32.0327 74.7778 38.9825 74.7778 47.5555C74.7778 56.1286 82.2543 63.0784 91.4771 63.0784Z" stroke="#C1C7DD" stroke-opacity="0.5517" stroke-width="0.954248"/>
<path d="M108.176 64.0327H74.7778V111.078H108.176V64.0327Z" stroke="#C1C7DD" stroke-opacity="0.5517" stroke-width="0.954248"/>
<path fill-rule="evenodd" clip-rule="evenodd" d="M60.0277 149.483L44.8066 138.799L75.2162 101.208L90.4374 111.892L60.0277 149.483Z" stroke="#C1C7DD" stroke-opacity="0.582931" stroke-width="0.954248"/>
<path fill-rule="evenodd" clip-rule="evenodd" d="M123.883 149.483L139.104 138.799L108.695 101.208L93.4734 111.892L123.883 149.483Z" stroke="#C1C7DD" stroke-opacity="0.582931" stroke-width="0.954248"/>
<path d="M106.746 112.045H76.2102V155.091H106.746V112.045Z" stroke="#C1C7DD" stroke-opacity="0.5517" stroke-width="0.954248"/>
<path fill-rule="evenodd" clip-rule="evenodd" d="M73.6547 82.167L26.9037 81.4068L27.2356 63.6971L73.9866 64.4572L73.6547 82.167Z" stroke="#C1C7DD" stroke-opacity="0.5517" stroke-width="0.954248"/>
<path fill-rule="evenodd" clip-rule="evenodd" d="M154.766 82.167L108.015 81.4068L108.347 63.6971L155.098 64.4572L154.766 82.167Z" stroke="#C1C7DD" stroke-opacity="0.5517" stroke-width="0.954248"/>
<path fill-rule="evenodd" clip-rule="evenodd" d="M32.3014 49.6176L64.8506 77.3757L77.8332 64.4073L44.1598 36.7599L32.3014 49.6176Z" stroke="#C1C7DD" stroke-opacity="0.582931" stroke-width="0.954248"/>
<path fill-rule="evenodd" clip-rule="evenodd" d="M150.997 49.6176L118.448 77.3757L105.466 64.4072L139.139 36.7598L150.997 49.6176Z" stroke="#C1C7DD" stroke-opacity="0.582931" stroke-width="0.954248"/>
<g filter="url(#filter1_di_13_96)">
<path d="M445.532 14C447.939 14 450.243 14.9814 451.91 16.7178L458.276 23.3486C459.968 25.1107 462.029 26.8398 464.472 26.8398H565.293C573.838 26.8399 580.764 33.7669 580.765 42.3115V161.666C580.765 167.769 575.816 172.718 569.713 172.718H384.051C377.947 172.718 373 167.769 373 161.666V26.9307C373 26.8805 373.041 26.8398 373.091 26.8398C373.141 26.8398 373.182 26.7992 373.182 26.749V22.8408C373.182 17.9582 377.14 14.0002 382.022 14H445.532Z" fill="url(#paint3_linear_13_96)"/>
</g>
<g opacity="0.5" filter="url(#filter2_di_13_96)">
<path d="M373.182 49.3642C373.182 43.2607 378.13 38.3129 384.233 38.3129H569.896C575.999 38.3129 580.947 43.2607 580.947 49.3642V162.088C580.947 168.191 575.999 173.139 569.896 173.139H384.233C378.13 173.139 373.182 168.191 373.182 162.088V49.3642Z" fill="url(#paint4_linear_13_96)"/>
</g>
<path d="M378.281 222L387.791 195.809H392.502L401.941 222H397.705L392.66 207.234C392.25 205.98 391.805 204.609 391.324 203.121C390.844 201.633 390.27 199.787 389.602 197.584H390.709C390.041 199.787 389.467 201.633 388.986 203.121C388.506 204.609 388.055 205.98 387.633 207.234L382.43 222H378.281ZM383.555 215.197V211.875H396.686V215.197H383.555ZM404.35 229.348V203.438H407.988V206.109H408.041C408.428 205.43 408.914 204.867 409.5 204.422C410.098 203.977 410.76 203.643 411.486 203.42C412.225 203.186 412.992 203.068 413.789 203.068C415.395 203.068 416.795 203.479 417.99 204.299C419.197 205.107 420.135 206.238 420.803 207.691C421.482 209.133 421.822 210.809 421.822 212.719C421.822 214.629 421.488 216.311 420.82 217.764C420.152 219.205 419.215 220.336 418.008 221.156C416.801 221.965 415.389 222.369 413.771 222.369C412.975 222.369 412.219 222.252 411.504 222.018C410.801 221.783 410.162 221.432 409.588 220.963C409.014 220.494 408.521 219.908 408.111 219.205H408.059V229.348H404.35ZM413.016 219.17C414.023 219.17 414.902 218.924 415.652 218.432C416.402 217.928 416.988 217.201 417.41 216.252C417.844 215.291 418.061 214.113 418.061 212.719C418.061 211.312 417.844 210.129 417.41 209.168C416.988 208.207 416.402 207.48 415.652 206.988C414.902 206.496 414.023 206.25 413.016 206.25C411.961 206.25 411.041 206.52 410.256 207.059C409.482 207.586 408.879 208.336 408.445 209.309C408.023 210.27 407.812 211.406 407.812 212.719C407.812 214.008 408.023 215.139 408.445 216.111C408.879 217.084 409.482 217.84 410.256 218.379C411.041 218.906 411.961 219.17 413.016 219.17ZM425.092 229.348V203.438H428.73V206.109H428.783C429.17 205.43 429.656 204.867 430.242 204.422C430.84 203.977 431.502 203.643 432.229 203.42C432.967 203.186 433.734 203.068 434.531 203.068C436.137 203.068 437.537 203.479 438.732 204.299C439.939 205.107 440.877 206.238 441.545 207.691C442.225 209.133 442.564 210.809 442.564 212.719C442.564 214.629 442.23 216.311 441.562 217.764C440.895 219.205 439.957 220.336 438.75 221.156C437.543 221.965 436.131 222.369 434.514 222.369C433.717 222.369 432.961 222.252 432.246 222.018C431.543 221.783 430.904 221.432 430.33 220.963C429.756 220.494 429.264 219.908 428.854 219.205H428.801V229.348H425.092ZM433.758 219.17C434.766 219.17 435.645 218.924 436.395 218.432C437.145 217.928 437.73 217.201 438.152 216.252C438.586 215.291 438.803 214.113 438.803 212.719C438.803 211.312 438.586 210.129 438.152 209.168C437.73 208.207 437.145 207.48 436.395 206.988C435.645 206.496 434.766 206.25 433.758 206.25C432.703 206.25 431.783 206.52 430.998 207.059C430.225 207.586 429.621 208.336 429.188 209.309C428.766 210.27 428.555 211.406 428.555 212.719C428.555 214.008 428.766 215.139 429.188 216.111C429.621 217.084 430.225 217.84 430.998 218.379C431.783 218.906 432.703 219.17 433.758 219.17ZM449.543 195.809V222H445.834V195.809H449.543ZM453.744 222V203.438H457.453V222H453.744ZM455.59 200.238C454.934 200.238 454.377 200.021 453.92 199.588C453.475 199.143 453.252 198.604 453.252 197.971C453.252 197.326 453.475 196.787 453.92 196.354C454.377 195.908 454.934 195.686 455.59 195.686C456.246 195.686 456.803 195.908 457.26 196.354C457.717 196.787 457.945 197.326 457.945 197.971C457.945 198.604 457.717 199.143 457.26 199.588C456.803 200.021 456.246 200.238 455.59 200.238ZM469.6 222.422C467.83 222.422 466.283 222.012 464.959 221.191C463.635 220.371 462.598 219.234 461.848 217.781C461.109 216.316 460.74 214.641 460.74 212.754C460.74 210.844 461.109 209.156 461.848 207.691C462.598 206.227 463.635 205.084 464.959 204.264C466.283 203.432 467.83 203.016 469.6 203.016C470.701 203.016 471.721 203.186 472.658 203.525C473.607 203.854 474.439 204.322 475.154 204.932C475.869 205.529 476.443 206.244 476.877 207.076C477.322 207.896 477.604 208.799 477.721 209.783H474.029C473.936 209.256 473.771 208.775 473.537 208.342C473.303 207.908 472.998 207.533 472.623 207.217C472.248 206.9 471.809 206.654 471.305 206.479C470.812 206.303 470.25 206.215 469.617 206.215C468.551 206.215 467.637 206.484 466.875 207.023C466.113 207.562 465.527 208.324 465.117 209.309C464.707 210.281 464.502 211.43 464.502 212.754C464.502 214.066 464.707 215.209 465.117 216.182C465.527 217.143 466.113 217.893 466.875 218.432C467.637 218.959 468.551 219.223 469.617 219.223C470.25 219.223 470.812 219.141 471.305 218.977C471.797 218.801 472.219 218.555 472.57 218.238C472.922 217.922 473.215 217.547 473.449 217.113C473.684 216.668 473.859 216.176 473.977 215.637H477.721C477.615 216.609 477.34 217.506 476.895 218.326C476.461 219.146 475.881 219.867 475.154 220.488C474.439 221.098 473.607 221.572 472.658 221.912C471.721 222.252 470.701 222.422 469.6 222.422ZM486.756 222.299C485.525 222.299 484.424 222.088 483.451 221.666C482.49 221.244 481.729 220.617 481.166 219.785C480.604 218.953 480.322 217.922 480.322 216.691C480.322 215.637 480.521 214.77 480.92 214.09C481.33 213.41 481.881 212.871 482.572 212.473C483.264 212.074 484.049 211.775 484.928 211.576C485.807 211.365 486.715 211.207 487.652 211.102C488.824 210.949 489.744 210.832 490.412 210.75C491.092 210.656 491.572 210.516 491.854 210.328C492.146 210.129 492.293 209.807 492.293 209.361V209.203C492.293 208.605 492.146 208.078 491.854 207.621C491.561 207.152 491.133 206.783 490.57 206.514C490.008 206.244 489.334 206.109 488.549 206.109C487.764 206.109 487.066 206.238 486.457 206.496C485.859 206.754 485.379 207.111 485.016 207.568C484.664 208.014 484.465 208.523 484.418 209.098H480.779C480.838 207.914 481.195 206.871 481.852 205.969C482.508 205.066 483.41 204.357 484.559 203.842C485.707 203.326 487.055 203.068 488.602 203.068C489.738 203.068 490.764 203.215 491.678 203.508C492.592 203.801 493.365 204.223 493.998 204.773C494.643 205.312 495.129 205.963 495.457 206.725C495.797 207.486 495.967 208.336 495.967 209.273V222H492.311V219.363H492.24C491.982 219.867 491.631 220.342 491.186 220.787C490.74 221.232 490.154 221.596 489.428 221.877C488.713 222.158 487.822 222.299 486.756 222.299ZM487.512 219.311C488.602 219.311 489.498 219.117 490.201 218.73C490.916 218.332 491.443 217.811 491.783 217.166C492.135 216.521 492.311 215.818 492.311 215.057V212.877C492.182 212.982 491.971 213.082 491.678 213.176C491.396 213.258 491.051 213.34 490.641 213.422C490.23 213.492 489.785 213.568 489.305 213.65C488.824 213.732 488.344 213.803 487.863 213.861C487.184 213.955 486.551 214.113 485.965 214.336C485.379 214.547 484.904 214.846 484.541 215.232C484.189 215.619 484.014 216.129 484.014 216.762C484.014 217.289 484.154 217.746 484.436 218.133C484.717 218.508 485.121 218.801 485.648 219.012C486.176 219.211 486.797 219.311 487.512 219.311ZM509.098 203.438V206.496H498.34V203.438H509.098ZM501.609 198.375H505.318V217.096C505.318 217.775 505.459 218.256 505.74 218.537C506.033 218.807 506.549 218.941 507.287 218.941C507.568 218.941 507.879 218.941 508.219 218.941C508.559 218.941 508.852 218.941 509.098 218.941V222C508.793 222 508.424 222 507.99 222C507.568 222 507.158 222 506.76 222C505.014 222 503.719 221.637 502.875 220.91C502.031 220.172 501.609 219.059 501.609 217.57V198.375ZM512.033 222V203.438H515.742V222H512.033ZM513.879 200.238C513.223 200.238 512.666 200.021 512.209 199.588C511.764 199.143 511.541 198.604 511.541 197.971C511.541 197.326 511.764 196.787 512.209 196.354C512.666 195.908 513.223 195.686 513.879 195.686C514.535 195.686 515.092 195.908 515.549 196.354C516.006 196.787 516.234 197.326 516.234 197.971C516.234 198.604 516.006 199.143 515.549 199.588C515.092 200.021 514.535 200.238 513.879 200.238ZM527.924 222.422C526.154 222.422 524.602 222.012 523.266 221.191C521.93 220.371 520.887 219.234 520.137 217.781C519.398 216.328 519.029 214.652 519.029 212.754C519.029 210.832 519.398 209.145 520.137 207.691C520.887 206.227 521.93 205.084 523.266 204.264C524.602 203.432 526.154 203.016 527.924 203.016C529.693 203.016 531.24 203.432 532.564 204.264C533.9 205.084 534.938 206.227 535.676 207.691C536.426 209.145 536.801 210.832 536.801 212.754C536.801 214.652 536.426 216.328 535.676 217.781C534.938 219.234 533.9 220.371 532.564 221.191C531.24 222.012 529.693 222.422 527.924 222.422ZM527.924 219.223C528.979 219.223 529.887 218.959 530.648 218.432C531.422 217.893 532.014 217.137 532.424 216.164C532.846 215.191 533.057 214.055 533.057 212.754C533.057 211.418 532.846 210.264 532.424 209.291C532.014 208.318 531.422 207.562 530.648 207.023C529.887 206.484 528.979 206.215 527.924 206.215C526.869 206.215 525.955 206.484 525.182 207.023C524.42 207.551 523.828 208.307 523.406 209.291C522.996 210.264 522.791 211.418 522.791 212.754C522.791 214.066 522.996 215.209 523.406 216.182C523.828 217.143 524.42 217.893 525.182 218.432C525.943 218.959 526.857 219.223 527.924 219.223ZM543.797 211.312V222H540.088V203.438H543.727V208.043H542.865C543.475 206.379 544.318 205.137 545.396 204.316C546.486 203.484 547.799 203.068 549.334 203.068C550.611 203.068 551.754 203.35 552.762 203.912C553.781 204.463 554.584 205.283 555.17 206.373C555.756 207.463 556.049 208.816 556.049 210.434V222H552.34V210.891C552.34 209.402 551.982 208.283 551.268 207.533C550.564 206.771 549.568 206.391 548.279 206.391C547.436 206.391 546.674 206.561 545.994 206.9C545.326 207.24 544.793 207.773 544.395 208.5C543.996 209.227 543.797 210.164 543.797 211.312ZM567.105 222.439C565.688 222.439 564.41 222.211 563.273 221.754C562.137 221.297 561.223 220.617 560.531 219.715C559.84 218.812 559.447 217.693 559.354 216.357H563.01C563.115 217.354 563.508 218.127 564.188 218.678C564.879 219.217 565.828 219.486 567.035 219.486C568.219 219.486 569.15 219.246 569.83 218.766C570.51 218.285 570.85 217.676 570.85 216.938C570.85 216.305 570.604 215.801 570.111 215.426C569.631 215.039 568.986 214.758 568.178 214.582L565.102 213.896C563.355 213.51 562.031 212.871 561.129 211.98C560.227 211.09 559.775 209.959 559.775 208.588C559.775 207.486 560.068 206.52 560.654 205.688C561.252 204.855 562.084 204.205 563.15 203.736C564.217 203.268 565.459 203.033 566.877 203.033C568.271 203.033 569.508 203.279 570.586 203.771C571.676 204.264 572.531 204.961 573.152 205.863C573.785 206.766 574.119 207.844 574.154 209.098H570.604C570.592 208.195 570.252 207.451 569.584 206.865C568.916 206.268 568.031 205.969 566.93 205.969C565.875 205.969 565.037 206.215 564.416 206.707C563.795 207.199 563.484 207.803 563.484 208.518C563.484 209.15 563.719 209.66 564.188 210.047C564.668 210.434 565.324 210.721 566.156 210.908L569.32 211.611C571.137 212.01 572.467 212.625 573.311 213.457C574.166 214.289 574.594 215.379 574.594 216.727C574.594 217.91 574.266 218.93 573.609 219.785C572.965 220.629 572.08 221.285 570.955 221.754C569.83 222.211 568.547 222.439 567.105 222.439Z" fill="white"/>
<g opacity="0.99">
<path d="M238 93H314.808" stroke="white" stroke-width="11" stroke-linecap="round"/>
<path d="M288.507 66L316.452 92.5" stroke="white" stroke-width="11" stroke-linecap="round"/>
<path d="M287.411 121L317 93" stroke="white" stroke-width="11" stroke-linecap="round"/>
</g>
<defs>
<filter id="filter0_i_13_96" x="0" y="0" width="182" height="175.5" filterUnits="userSpaceOnUse" color-interpolation-filters="sRGB">
<feFlood flood-opacity="0" result="BackgroundImageFix"/>
<feBlend mode="normal" in="SourceGraphic" in2="BackgroundImageFix" result="shape"/>
<feColorMatrix in="SourceAlpha" type="matrix" values="0 0 0 0 0 0 0 0 0 0 0 0 0 0 0 0 0 0 127 0" result="hardAlpha"/>
<feOffset dy="0.5"/>
<feGaussianBlur stdDeviation="2"/>
<feComposite in2="hardAlpha" operator="arithmetic" k2="-1" k3="1"/>
<feColorMatrix type="matrix" values="0 0 0 0 1 0 0 0 0 1 0 0 0 0 1 0 0 0 0.601677 0"/>
<feBlend mode="normal" in2="shape" result="effect1_innerShadow_13_96"/>
</filter>
<filter id="filter1_di_13_96" x="364.159" y="5.15894" width="225.447" height="176.4" filterUnits="userSpaceOnUse" color-interpolation-filters="sRGB">
<feFlood flood-opacity="0" result="BackgroundImageFix"/>
<feColorMatrix in="SourceAlpha" type="matrix" values="0 0 0 0 0 0 0 0 0 0 0 0 0 0 0 0 0 0 127 0" result="hardAlpha"/>
<feOffset/>
<feGaussianBlur stdDeviation="4.42053"/>
<feComposite in2="hardAlpha" operator="out"/>
<feColorMatrix type="matrix" values="0 0 0 0 0 0 0 0 0 0 0 0 0 0 0 0 0 0 0.25 0"/>
<feBlend mode="normal" in2="BackgroundImageFix" result="effect1_dropShadow_13_96"/>
<feBlend mode="normal" in="SourceGraphic" in2="effect1_dropShadow_13_96" result="shape"/>
<feColorMatrix in="SourceAlpha" type="matrix" values="0 0 0 0 0 0 0 0 0 0 0 0 0 0 0 0 0 0 127 0" result="hardAlpha"/>
<feOffset dy="1.10513"/>
<feGaussianBlur stdDeviation="0.773593"/>
<feComposite in2="hardAlpha" operator="arithmetic" k2="-1" k3="1"/>
<feColorMatrix type="matrix" values="0 0 0 0 1 0 0 0 0 1 0 0 0 0 1 0 0 0 0.25 0"/>
<feBlend mode="normal" in2="shape" result="effect2_innerShadow_13_96"/>
</filter>
<filter id="filter2_di_13_96" x="344.006" y="9.13736" width="266.116" height="193.177" filterUnits="userSpaceOnUse" color-interpolation-filters="sRGB">
<feFlood flood-opacity="0" result="BackgroundImageFix"/>
<feColorMatrix in="SourceAlpha" type="matrix" values="0 0 0 0 0 0 0 0 0 0 0 0 0 0 0 0 0 0 127 0" result="hardAlpha"/>
<feOffset/>
<feGaussianBlur stdDeviation="14.5878"/>
<feComposite in2="hardAlpha" operator="out"/>
<feColorMatrix type="matrix" values="0 0 0 0 0 0 0 0 0 0 0 0 0 0 0 0 0 0 0.25 0"/>
<feBlend mode="normal" in2="BackgroundImageFix" result="effect1_dropShadow_13_96"/>
<feBlend mode="normal" in="SourceGraphic" in2="effect1_dropShadow_13_96" result="shape"/>
<feColorMatrix in="SourceAlpha" type="matrix" values="0 0 0 0 0 0 0 0 0 0 0 0 0 0 0 0 0 0 127 0" result="hardAlpha"/>
<feOffset dy="1.10513"/>
<feGaussianBlur stdDeviation="0.66308"/>
<feComposite in2="hardAlpha" operator="arithmetic" k2="-1" k3="1"/>
<feColorMatrix type="matrix" values="0 0 0 0 1 0 0 0 0 1 0 0 0 0 1 0 0 0 0.82 0"/>
<feBlend mode="normal" in2="shape" result="effect2_innerShadow_13_96"/>
</filter>
<linearGradient id="paint0_linear_13_96" x1="9100" y1="0" x2="9100" y2="17500" gradientUnits="userSpaceOnUse">
<stop stop-color="#0070C1"/>
<stop offset="1" stop-color="#003D8D"/>
</linearGradient>
<linearGradient id="paint1_linear_13_96" x1="349.999" y1="8750" x2="17850" y2="8750" gradientUnits="userSpaceOnUse">
<stop stop-color="#0070C1"/>
<stop offset="1" stop-color="#003D8D"/>
</linearGradient>
<linearGradient id="paint2_linear_13_96" x1="91" y1="175" x2="91" y2="0" gradientUnits="userSpaceOnUse">
<stop stop-color="#003E8F"/>
<stop offset="1" stop-color="#006FBF"/>
</linearGradient>
<linearGradient id="paint3_linear_13_96" x1="477.064" y1="40.5231" x2="476.881" y2="9.57948" gradientUnits="userSpaceOnUse">
<stop stop-color="#00ADE3"/>
<stop offset="1" stop-color="#26C1EF"/>
</linearGradient>
<linearGradient id="paint4_linear_13_96" x1="477.064" y1="38.3129" x2="477.064" y2="173.139" gradientUnits="userSpaceOnUse">
<stop stop-color="#4AD0FB"/>
<stop offset="1" stop-color="#00B3E6"/>
</linearGradient>
</defs>
</svg>
