<svg width="1261" height="709" viewBox="0 0 1261 709" fill="none" xmlns="http://www.w3.org/2000/svg">
<mask id="mask0_16_143" style="mask-type:luminance" maskUnits="userSpaceOnUse" x="0" y="0" width="1261" height="709">
<path d="M1260.44 0H0V709H1260.44V0Z" fill="url(#paint0_radial_16_143)"/>
</mask>
<g mask="url(#mask0_16_143)">
<path d="M1201.36 98.4722H157.556C124.925 98.4722 98.4722 124.925 98.4722 157.556V649.917C98.4722 682.547 124.925 709 157.556 709H1201.36C1233.99 709 1260.44 682.547 1260.44 649.917V157.556C1260.44 124.925 1233.99 98.4722 1201.36 98.4722Z" fill="url(#paint1_linear_16_143)" stroke="#363636" stroke-width="4.92361"/>
<path d="M1201.36 98.4722H157.556C124.925 98.4722 98.4722 124.925 98.4722 157.556V649.917C98.4722 682.547 124.925 709 157.556 709H1201.36C1233.99 709 1260.44 682.547 1260.44 649.917V157.556C1260.44 124.925 1233.99 98.4722 1201.36 98.4722Z" stroke="#363636" stroke-width="4.92361"/>
<path d="M236.333 265.875C258.087 265.875 275.722 248.24 275.722 226.486C275.722 204.732 258.087 187.097 236.333 187.097C214.579 187.097 196.944 204.732 196.944 226.486C196.944 248.24 214.579 265.875 236.333 265.875Z" fill="#EF534F" stroke="#D55B59" stroke-width="4.92361"/>
<path d="M374.194 265.875C395.948 265.875 413.583 248.24 413.583 226.486C413.583 204.732 395.948 187.097 374.194 187.097C352.441 187.097 334.806 204.732 334.806 226.486C334.806 248.24 352.441 265.875 374.194 265.875Z" fill="#F0B23D" stroke="#D5A03F" stroke-width="4.92361"/>
<path d="M512.056 265.875C533.809 265.875 551.444 248.24 551.444 226.486C551.444 204.732 533.809 187.097 512.056 187.097C490.302 187.097 472.667 204.732 472.667 226.486C472.667 248.24 490.302 265.875 512.056 265.875Z" fill="#30BD44" stroke="#2AAA41" stroke-width="4.92361"/>
<path d="M1260.44 354.5H98.4722V965.028H1260.44V354.5Z" fill="#2C2B2E" stroke="#363636" stroke-width="4.92361"/>
</g>
<defs>
<radialGradient id="paint0_radial_16_143" cx="0" cy="0" r="1" gradientUnits="userSpaceOnUse" gradientTransform="scale(1260.44 709)">
<stop offset="0.6" stop-color="white"/>
<stop offset="0.95"/>
</radialGradient>
<linearGradient id="paint1_linear_16_143" x1="-102.5" y1="300" x2="-106" y2="-728.5" gradientUnits="userSpaceOnUse">
<stop offset="0.01" stop-color="#202022"/>
<stop offset="0.0336538" stop-color="#242225"/>
<stop offset="0.4" stop-color="#424144"/>
</linearGradient>
</defs>
</svg>
