<svg width="250" height="97" viewBox="0 0 553 214" fill="none" xmlns="http://www.w3.org/2000/svg">
<rect x="351" y="2" width="202" height="212" rx="45" fill="#9A9A9A"/>
<rect y="2" width="324" height="212" rx="45" fill="#9A9A9A"/>
<path fill-rule="evenodd" clip-rule="evenodd" d="M298.945 7.97973C306.301 11.9137 312.086 17.6987 316.02 25.0546C320.455 33.3477 322 41.346 322 59.1235V142.876C322 160.654 320.455 168.652 316.02 176.945C312.086 184.301 306.301 190.086 298.945 194.02C290.652 198.455 282.654 200 264.876 200H59.1235C41.346 200 33.3477 198.455 25.0546 194.02C17.6987 190.086 11.9137 184.301 7.97973 176.945C3.54456 168.652 2 160.654 2 142.876V59.1235C2 41.346 3.54456 33.3477 7.97973 25.0546C11.9137 17.6987 17.6987 11.9137 25.0546 7.97973C33.3477 3.54456 41.346 2 59.1235 2H264.876C282.654 2 290.652 3.54456 298.945 7.97973Z" fill="#DDDDDD" stroke="#9A9A9A" stroke-width="4"/>
<path fill-rule="evenodd" clip-rule="evenodd" d="M527.945 7.97973L530.63 9.54119C536.719 13.3845 541.578 18.6182 545.02 25.0546C549.455 33.3477 551 41.346 551 59.1235V142.876C551 160.654 549.455 168.652 545.02 176.945C541.086 184.301 535.301 190.086 527.945 194.02C519.652 198.455 511.654 200 493.876 200H409.124C391.346 200 383.348 198.455 375.055 194.02C367.699 190.086 361.914 184.301 357.98 176.945C353.545 168.652 352 160.654 352 142.876V59.1235C352 41.346 353.545 33.3477 357.98 25.0546C361.914 17.6987 367.699 11.9137 375.055 7.97973C383.348 3.54456 391.346 2 409.124 2H493.876C511.654 2 519.652 3.54456 527.945 7.97973Z" fill="#DDDDDD" stroke="#9A9A9A" stroke-width="4"/>
<path d="M43.446 159.766C42.7401 159.766 42.3722 159.418 42.1136 158.741C41.4773 157.121 39.9659 156.166 37.9972 156.166C34.8452 156.166 32.777 158.582 32.777 162.818C32.777 167.173 34.875 169.47 37.9673 169.47C39.8864 169.47 41.3977 168.595 42.0739 167.044C42.3622 166.378 42.7202 166.04 43.4261 166.04L45.4048 166.05C46.2401 166.06 46.6974 166.557 46.4688 167.352C45.5043 170.574 42.5114 173.278 37.8977 173.278C32.4489 173.278 28.4119 169.46 28.4119 162.818C28.4119 156.156 32.5185 152.358 37.8977 152.358C42.1534 152.358 45.4744 154.565 46.4886 158.463C46.7074 159.278 46.2401 159.766 45.4148 159.766H43.446ZM56.6456 173.298C52.0121 173.298 49.1286 170.126 49.1286 165.423C49.1286 160.69 52.0121 157.528 56.6456 157.528C61.2791 157.528 64.1626 160.69 64.1626 165.423C64.1626 170.126 61.2791 173.298 56.6456 173.298ZM53.4339 165.393C53.4339 168.058 54.5277 170.017 56.6655 170.017C58.7635 170.017 59.8572 168.058 59.8572 165.393C59.8572 162.729 58.7635 160.76 56.6655 160.76C54.5277 160.76 53.4339 162.729 53.4339 165.393ZM66.9169 158.92C66.9169 158.145 67.3345 157.727 68.1101 157.727H69.7607C70.5362 157.727 70.9538 158.145 70.9538 158.92V160.422H71.1328C71.7692 158.622 73.3303 157.528 75.3885 157.528C77.4865 157.528 79.0476 158.652 79.5348 160.422H79.6939C80.3203 158.672 82.0604 157.528 84.2976 157.528C87.1413 157.528 89.1101 159.418 89.1101 162.729V171.807C89.1101 172.582 88.6925 173 87.9169 173H86.0774C85.3018 173 84.8842 172.582 84.8842 171.807V163.564C84.8842 161.864 83.87 161.018 82.5178 161.018C80.9766 161.018 80.0717 162.092 80.0717 163.673V171.807C80.0717 172.582 79.6541 173 78.8786 173H77.1584C76.3828 173 75.9652 172.582 75.9652 171.807V163.474C75.9652 161.973 75.0305 161.018 73.6385 161.018C72.2266 161.018 71.1527 162.142 71.1527 163.832V171.807C71.1527 172.582 70.7351 173 69.9595 173H68.1101C67.3345 173 66.9169 172.582 66.9169 171.807V158.92ZM92.456 158.92C92.456 158.145 92.8736 157.727 93.6491 157.727H95.2997C96.0753 157.727 96.4929 158.145 96.4929 158.92V160.422H96.6719C97.3082 158.622 98.8693 157.528 100.928 157.528C103.026 157.528 104.587 158.652 105.074 160.422H105.233C105.859 158.672 107.599 157.528 109.837 157.528C112.68 157.528 114.649 159.418 114.649 162.729V171.807C114.649 172.582 114.232 173 113.456 173H111.616C110.841 173 110.423 172.582 110.423 171.807V163.564C110.423 161.864 109.409 161.018 108.057 161.018C106.516 161.018 105.611 162.092 105.611 163.673V171.807C105.611 172.582 105.193 173 104.418 173H102.697C101.922 173 101.504 172.582 101.504 171.807V163.474C101.504 161.973 100.57 161.018 99.1776 161.018C97.7656 161.018 96.6918 162.142 96.6918 163.832V171.807C96.6918 172.582 96.2741 173 95.4986 173H93.6491C92.8736 173 92.456 172.582 92.456 171.807V158.92ZM122.35 173.288C119.437 173.288 117.279 171.757 117.279 168.734C117.279 165.324 119.994 164.31 123.016 164.031C125.671 163.773 126.715 163.643 126.715 162.659V162.599C126.715 161.347 125.89 160.621 124.448 160.621C123.404 160.621 122.658 160.969 122.191 161.516C121.754 162.053 121.415 162.361 120.739 162.301L119.178 162.172C118.333 162.102 117.886 161.545 118.254 160.78C119.228 158.751 121.406 157.528 124.468 157.528C127.869 157.528 130.951 159.06 130.951 162.699V171.807C130.951 172.582 130.533 173 129.758 173H128.127C127.352 173 126.934 172.622 126.934 171.936V170.882H126.815C126.069 172.304 124.607 173.288 122.35 173.288ZM121.326 168.595C121.326 169.759 122.261 170.365 123.563 170.365C125.423 170.365 126.745 169.142 126.745 167.541V165.92C126.238 166.259 124.727 166.477 123.802 166.607C122.31 166.815 121.326 167.402 121.326 168.595ZM138.473 171.807C138.473 172.582 138.055 173 137.28 173H135.43C134.655 173 134.237 172.582 134.237 171.807V158.92C134.237 158.145 134.655 157.727 135.43 157.727H137.081C137.857 157.727 138.274 158.145 138.274 158.92V160.422H138.453C139.139 158.642 140.78 157.528 143.047 157.528C146.229 157.528 148.317 159.716 148.317 163.276V171.807C148.317 172.582 147.899 173 147.124 173H145.274C144.499 173 144.081 172.582 144.081 171.807V164.031C144.091 162.162 143.067 161.048 141.366 161.048C139.656 161.048 138.483 162.202 138.473 164.17V171.807ZM157.283 173.249C153.803 173.249 151.088 170.494 151.088 165.384C151.088 160.134 153.922 157.528 157.273 157.528C159.828 157.528 161.051 159.05 161.618 160.293H161.748V153.83C161.748 153.054 162.165 152.636 162.941 152.636H164.78C165.556 152.636 165.973 153.054 165.973 153.83V171.807C165.973 172.582 165.556 173 164.78 173H162.99C162.215 173 161.797 172.582 161.797 171.807V170.554H161.618C161.032 171.827 159.749 173.249 157.283 173.249ZM155.414 165.364C155.414 168.028 156.547 169.878 158.625 169.878C160.664 169.878 161.837 168.088 161.837 165.364C161.837 162.639 160.684 160.899 158.625 160.899C156.527 160.899 155.414 162.719 155.414 165.364Z" fill="#575757"/>
<path d="M454.989 91.9773H455.534L468.045 70.9773C469.17 69.0682 470.67 68.1818 472.92 68.1818H480.591C483.864 68.1818 485.057 70.2614 483.352 73.0909L465.045 103.091L483.761 133.057C485.5 135.852 484.341 138 481.034 138H473.091C470.875 138 469.341 137.182 468.182 135.239L455.534 114.17H454.989L442.341 135.239C441.182 137.182 439.648 138 437.432 138H429.591C426.284 138 425.125 135.852 426.864 133.057L445.614 103.091L427.205 73.0909C425.5 70.2955 426.693 68.1818 429.966 68.1818H437.67C439.92 68.1818 441.42 69.0682 442.545 70.9773L454.989 91.9773Z" fill="#575757"/>
<path d="M270.036 58.6552C266.28 58.6552 263.222 55.5831 263.222 51.8267C263.222 48.0412 266.28 44.9837 270.036 44.9691H272.919V41.1836H270.036C266.28 41.1982 263.222 38.1261 263.222 34.3551C263.222 30.5842 266.28 27.5266 270.036 27.5266C273.822 27.5266 276.879 30.5842 276.894 34.3551V37.1942H280.694V34.3551C280.679 30.5842 283.737 27.5266 287.508 27.5266C291.279 27.5266 294.336 30.5842 294.336 34.3551C294.336 38.1261 291.279 41.1982 287.508 41.1836H284.669V44.9691H287.508C291.279 44.9837 294.336 48.0412 294.336 51.8267C294.336 55.5831 291.279 58.6552 287.508 58.6552C283.737 58.6552 280.679 55.5831 280.694 51.8267V48.9585H276.894V51.8267C276.879 55.5831 273.822 58.6552 270.036 58.6552ZM267.197 51.8267C267.197 53.3991 268.478 54.6658 270.036 54.6658C271.623 54.6658 272.904 53.3991 272.919 51.8267V48.9585H270.036C268.478 48.973 267.197 50.2397 267.197 51.8267ZM267.197 34.3551C267.197 35.9421 268.478 37.2088 270.036 37.1942H272.919V34.3551C272.904 32.7827 271.623 31.516 270.036 31.516C268.478 31.516 267.197 32.7827 267.197 34.3551ZM276.894 44.9691H280.694V41.1836H276.894V44.9691ZM284.669 51.8267C284.654 53.3991 285.935 54.6658 287.508 54.6658C289.08 54.6658 290.362 53.3991 290.362 51.8267C290.362 50.2397 289.08 48.973 287.508 48.9585H284.669V51.8267ZM284.669 37.1942H287.508C289.08 37.2088 290.362 35.9421 290.362 34.3551C290.362 32.7827 289.08 31.516 287.508 31.516C285.935 31.516 284.654 32.7827 284.669 34.3551V37.1942Z" fill="#575757"/>
</svg>
